<?xml version="1.0" standalone="no"?>
<!DOCTYPE svg PUBLIC "-//W3C//DTD SVG 20010904//EN"
 "http://www.w3.org/TR/2001/REC-SVG-20010904/DTD/svg10.dtd">
<svg version="1.0" xmlns="http://www.w3.org/2000/svg"
 width="500.000000pt" height="500.000000pt" viewBox="0 0 500.000000 500.000000"
 preserveAspectRatio="xMidYMid meet">

<g transform="translate(0.000000,500.000000) scale(0.100000,-0.100000)"
fill="#000000" stroke="none">
<path d="M2284 4150 c-186 -13 -270 -36 -280 -76 -10 -41 1 -58 71 -111 97
-72 142 -125 161 -191 39 -134 -20 -253 -179 -360 -38 -25 -113 -88 -166 -138
-83 -79 -104 -105 -148 -190 -82 -157 -105 -282 -104 -564 0 -269 37 -501 123
-768 57 -181 178 -415 283 -552 55 -71 222 -233 266 -256 l34 -19 -130 -2
c-230 -4 -613 -23 -636 -31 -13 -5 -18 -11 -12 -15 68 -42 1840 -42 1949 0 15
6 13 8 -11 15 -34 9 -409 28 -630 31 -100 1 -143 5 -130 11 34 16 137 101 202
168 77 79 200 262 263 393 140 292 214 598 226 940 19 500 -76 729 -401 970
-173 129 -211 186 -203 309 3 39 12 85 21 101 20 39 79 98 144 147 129 95 100
151 -92 178 -105 14 -481 21 -621 10z m556 -84 c14 -2 44 -4 68 -5 73 -2 38
-18 -70 -32 -208 -28 -718 -12 -718 22 0 7 67 16 185 23 63 4 492 -3 535 -8z
m-477 -311 c43 -89 -3 -277 -89 -371 l-46 -49 36 50 c39 53 76 119 76 132 -1
4 -8 -5 -17 -22 -21 -39 -114 -155 -125 -155 -14 0 -10 7 35 62 24 30 52 67
61 83 11 18 12 22 3 10 -73 -93 -142 -163 -153 -153 -1 2 25 35 57 73 33 39
75 99 92 135 27 55 32 76 33 145 1 44 2 83 3 88 3 17 19 4 34 -28z m25 -16
c-3 -8 -7 -3 -11 10 -4 17 -3 21 5 13 5 -5 8 -16 6 -23z m-7 -208 c-11 -36
-27 -75 -35 -86 -8 -11 -3 12 11 55 14 41 29 109 32 150 l6 75 3 -64 c2 -43
-4 -86 -17 -130z m36 67 c-2 -13 -4 -5 -4 17 -1 22 1 32 4 23 2 -10 2 -28 0
-40z m-107 -208 c-11 -16 -26 -33 -32 -36 -7 -4 1 9 16 29 34 44 46 50 16 7z
m630 -46 c0 -9 -16 -32 -34 -50 -19 -19 -35 -38 -34 -41 0 -3 -28 -30 -63 -60
-201 -172 -518 -291 -919 -348 -159 -22 -154 -23 -146 27 4 23 11 47 15 53 5
5 11 25 15 44 10 52 65 143 83 137 9 -4 74 -9 147 -12 309 -15 620 61 837 206
50 33 93 60 95 60 2 0 4 -7 4 -16z m-210 -29 c-65 -37 -175 -76 -275 -96 -128
-26 -361 -31 -458 -10 l-57 12 47 40 c55 45 44 43 148 24 139 -25 360 -14 518
25 89 22 109 23 77 5z m285 -17 c-32 -106 -181 -266 -350 -378 -118 -78 -197
-117 -425 -212 -290 -121 -395 -182 -479 -279 l-36 -43 -6 45 c-4 25 -6 81 -4
124 2 71 5 81 29 100 35 28 174 75 400 135 328 88 540 196 718 368 53 51 107
109 120 128 26 39 43 45 33 12z m66 -28 c33 -18 25 -40 -80 -215 -31 -53 -212
-203 -346 -287 -71 -45 -200 -117 -285 -161 -303 -156 -445 -250 -555 -369
-36 -39 -67 -69 -70 -66 -2 2 -7 30 -10 62 -5 52 -3 61 25 99 34 48 96 103
190 169 79 55 101 66 401 211 382 185 598 347 675 506 16 33 30 60 32 61 2 0
12 -5 23 -10z m86 -91 c3 -54 -68 -167 -181 -288 -41 -43 -129 -118 -234 -198
-67 -52 -71 -56 -49 -47 38 14 13 -7 -60 -51 -188 -115 -326 -196 -365 -216
-134 -68 -408 -280 -473 -365 l-30 -39 -12 69 c-12 64 -11 71 7 101 31 50 265
255 292 255 4 0 36 17 70 38 35 21 140 78 233 127 215 111 403 235 525 344 98
89 103 86 16 -9 -42 -45 -38 -42 22 15 84 81 162 179 194 248 24 50 42 56 45
16z m58 -89 c-4 -12 -33 -60 -65 -108 -96 -143 -248 -285 -490 -457 -122 -86
-175 -127 -115 -89 228 144 349 233 457 333 84 79 170 187 211 266 17 33 26
43 27 29 0 -27 -39 -106 -84 -169 -42 -58 -213 -234 -265 -273 -20 -15 -65
-51 -101 -81 -64 -54 -360 -253 -515 -346 -134 -80 -285 -195 -379 -287 -49
-49 -90 -87 -91 -86 -1 2 -9 30 -17 62 l-16 59 39 48 c91 106 289 259 489 373
36 21 72 41 80 46 8 5 39 23 69 40 169 99 422 279 444 316 4 8 14 14 22 14 32
0 231 225 270 307 20 42 43 44 30 3z m9 -181 c-41 -79 -65 -110 -173 -219
-185 -185 -334 -302 -683 -530 -108 -71 -199 -134 -203 -139 -3 -6 29 13 72
41 43 28 114 73 158 99 131 78 350 228 462 317 209 167 349 319 409 445 23 48
39 48 19 0 -45 -107 -100 -181 -239 -318 -186 -183 -285 -258 -731 -550 -199
-131 -307 -216 -375 -295 -25 -29 -53 -62 -62 -73 -18 -20 -24 -16 -32 25 -2
7 -8 24 -13 38 -9 20 -6 31 10 55 39 56 139 153 215 211 43 32 93 69 112 84
19 15 69 47 110 72 218 131 462 293 524 347 27 24 74 61 103 83 61 45 228 213
270 273 16 22 42 67 58 100 18 37 31 53 33 43 2 -10 -18 -59 -44 -109z m66
-69 c-50 -99 -175 -274 -189 -266 -4 3 -32 -20 -62 -51 -53 -55 -188 -168
-298 -250 -53 -41 -274 -184 -435 -284 -143 -89 -291 -207 -367 -294 -58 -68
-69 -75 -69 -48 0 28 164 198 256 266 79 58 249 168 386 249 89 52 262 171
303 208 17 14 43 34 58 44 15 9 65 50 110 90 45 40 96 81 113 91 18 10 48 41
68 69 52 73 136 208 136 220 0 5 3 7 6 4 3 -3 -4 -25 -16 -48z m-535 -165
c-28 -23 -45 -31 -45 -21 0 5 63 46 70 46 3 0 -8 -11 -25 -25z m390 -117 c-52
-63 -154 -164 -226 -223 -40 -33 -88 -74 -108 -91 -20 -17 -56 -44 -81 -59
-25 -16 -94 -60 -155 -100 -60 -39 -166 -102 -235 -140 -111 -61 -260 -160
-260 -173 0 -7 51 27 80 53 14 13 50 36 80 53 243 131 318 174 405 230 114 74
112 72 237 170 51 40 75 57 53 36 -22 -20 -63 -53 -90 -74 -52 -39 -83 -70
-69 -70 4 0 19 10 33 23 15 13 20 15 12 4 -8 -10 -28 -28 -45 -40 -22 -15 -27
-16 -17 -4 23 29 4 19 -102 -51 -106 -71 -212 -133 -357 -210 -47 -24 -94 -52
-105 -62 -11 -9 -45 -33 -75 -53 -59 -38 -137 -109 -187 -170 -20 -26 -33 -35
-38 -27 -4 7 11 31 38 58 24 26 43 52 40 58 -8 24 204 187 322 247 28 14 61
37 75 52 14 15 57 45 95 67 183 106 323 207 515 372 20 17 -3 -6 -50 -51 -47
-45 -80 -82 -75 -83 17 0 185 150 249 223 60 68 90 94 41 35z m-98 -63 c0 -8
-4 -12 -9 -9 -5 3 -6 10 -3 15 9 13 12 11 12 -6z m-177 -259 c0 -2 -8 -10 -17
-17 -16 -13 -17 -12 -4 4 13 16 21 21 21 13z m-155 -121 c-52 -43 -186 -130
-300 -195 -234 -134 -282 -165 -355 -226 -42 -35 -89 -82 -105 -104 -17 -22
-34 -40 -38 -40 -14 0 68 93 130 150 81 74 156 121 428 271 39 21 113 67 165
103 101 68 124 81 75 41z m-228 -178 c-89 -58 -123 -79 -197 -121 -124 -72
-208 -136 -289 -221 -39 -41 -71 -71 -71 -65 0 15 160 173 210 208 25 17 74
48 110 68 36 21 106 61 155 91 50 29 92 53 95 52 3 0 -3 -6 -13 -12z"/>
<path d="M2330 3780 c0 -3 7 -27 15 -53 8 -26 12 -62 10 -80 l-5 -32 10 29
c10 31 1 88 -18 122 -6 10 -11 17 -12 14z"/>
<path d="M2337 3591 c-4 -17 -3 -21 5 -13 5 5 8 16 6 23 -3 8 -7 3 -11 -10z"/>
<path d="M2316 3545 c-9 -26 -7 -32 5 -12 6 10 9 21 6 23 -2 3 -7 -2 -11 -11z"/>
<path d="M2238 3003 c7 -3 16 -2 19 1 4 3 -2 6 -13 5 -11 0 -14 -3 -6 -6z"/>
<path d="M2188 2993 c7 -3 16 -2 19 1 4 3 -2 6 -13 5 -11 0 -14 -3 -6 -6z"/>
<path d="M1949 2263 c-13 -16 -12 -17 4 -4 9 7 17 15 17 17 0 8 -8 3 -21 -13z"/>
<path d="M1934 2038 l-29 -33 33 29 c30 28 37 36 29 36 -2 0 -16 -15 -33 -32z"/>
<path d="M2139 1993 c-13 -16 -12 -17 4 -4 9 7 17 15 17 17 0 8 -8 3 -21 -13z"/>
<path d="M2079 1953 c-13 -16 -12 -17 4 -4 9 7 17 15 17 17 0 8 -8 3 -21 -13z"/>
<path d="M2024 1908 l-29 -33 33 29 c30 28 37 36 29 36 -2 0 -16 -15 -33 -32z"/>
<path d="M1910 1793 l-55 -58 58 55 c53 50 62 60 54 60 -1 0 -27 -26 -57 -57z"/>
<path d="M2785 2251 c-33 -27 -130 -91 -215 -144 -154 -95 -232 -149 -155
-106 22 12 67 39 100 59 33 21 105 65 160 99 94 58 202 142 180 140 -5 0 -37
-22 -70 -48z"/>
<path d="M2029 1729 l-44 -41 48 37 c43 34 53 45 43 45 -2 0 -23 -18 -47 -41z"/>
</g>
</svg>
